<svg xmlns="http://www.w3.org/2000/svg" viewBox="0 0 168 16.74"><defs><style>.cls-1{fill:#1d1d1b;}</style></defs><g id="Layer_2" data-name="Layer 2"><g id="Layer_1-2" data-name="Layer 1"><path class="cls-1" d="M0,.34H2.31l2.3,9.45C5,11.37,5.37,14,5.37,14h0s.44-2.7.84-4.27L8.84.34h2.33l2.5,9.43c.41,1.57.84,4.27.84,4.27h.05s.41-2.67.8-4.25L17.75.34H20L15.55,16.39H13.41L10.78,6.12c-.36-1.42-.75-4-.75-4h0s-.41,2.59-.78,4L6.38,16.39H4.18Z"/><path class="cls-1" d="M22.14.34h2.2V16.39h-2.2Z"/><path class="cls-1" d="M27.71.34h2.2v14h8.3v2H27.71Z"/><path class="cls-1" d="M40.54.34h2.21v14h8.3v2H40.54Z"/><path class="cls-1" d="M59.12.34h5.93c4.79,0,7.16,3.28,7.16,8.09s-2.5,8-7.31,8H59.12Zm5.7,14.13c3.62,0,5.11-2.35,5.11-6s-1.34-6.17-5-6.17H61.34V14.47Z"/><path class="cls-1" d="M78.78.34h2.46l5.91,16.05H84.73l-1.6-4.68H76.82l-1.64,4.68H72.91ZM77.42,10h5.13L81,5.5c-.54-1.55-1-3.41-1-3.41H80S79.51,4,79,5.5Z"/><path class="cls-1" d="M94.36,8.37C94.36,3.64,97.21,0,102,0a7,7,0,0,1,4.47,1.42,5.83,5.83,0,0,1,2,3.78h-2.2c-.37-2-1.9-3.28-4.36-3.28-3.41,0-5.33,2.76-5.33,6.45,0,3.84,2.12,6.42,5.35,6.42a4.28,4.28,0,0,0,4.51-4.24h2.2A6.66,6.66,0,0,1,106.74,15a6.59,6.59,0,0,1-4.83,1.7C97.34,16.71,94.36,13.22,94.36,8.37Z"/><path class="cls-1" d="M110.67,8.37c0-4.81,3-8.37,7.85-8.37s7.88,3.56,7.88,8.37-3.05,8.37-7.88,8.37S110.67,13.16,110.67,8.37Zm13.44,0c0-3.69-1.94-6.47-5.59-6.47s-5.6,2.78-5.6,6.47,2,6.42,5.6,6.42S124.11,12,124.11,8.37Z"/><path class="cls-1" d="M128.11,11.19h2.18c.26,2.42,1.85,3.75,4.76,3.75,2.14,0,3.69-.94,3.69-2.88,0-2.1-1.85-2.59-4.66-3.22s-5.3-1.42-5.3-4.51C128.78,1.64,131,0,134.34,0c3.95,0,5.72,2,6.1,4.73h-2.13c-.28-1.95-1.68-3-3.95-3-2.11,0-3.49.86-3.49,2.46S132.62,6.47,135,7c3.11.62,5.93,1.42,5.93,5,0,3-2.5,4.74-6,4.74C130.5,16.71,128.28,14.25,128.11,11.19Z"/><path class="cls-1" d="M141.85.34h12.77v2h-5.28v14.1h-2.22V2.29h-5.27Z"/><path class="cls-1" d="M159.63.34h2.46L168,16.39h-2.42L164,11.71h-6.32L156,16.39h-2.26ZM158.27,10h5.14L161.87,5.5c-.53-1.55-1-3.41-1-3.41h-.06s-.47,1.92-1,3.41Z"/></g></g></svg>